<?xml version="1.0" encoding="UTF-8" standalone="no"?>
<svg
   viewBox="0 0 448 448"
   version="1.1"
   id="svg1"
   sodipodi:docname="git-alt-brands-solid-full.svg"
   width="448"
   height="448"
   inkscape:version="1.4.2 (ebf0e940d0, 2025-05-08)"
   xmlns:inkscape="http://www.inkscape.org/namespaces/inkscape"
   xmlns:sodipodi="http://sodipodi.sourceforge.net/DTD/sodipodi-0.dtd"
   xmlns="http://www.w3.org/2000/svg"
   xmlns:svg="http://www.w3.org/2000/svg">
  <defs
     id="defs1" />
  <sodipodi:namedview
     id="namedview1"
     pagecolor="#505050"
     bordercolor="#eeeeee"
     borderopacity="1"
     inkscape:showpageshadow="0"
     inkscape:pageopacity="0"
     inkscape:pagecheckerboard="0"
     inkscape:deskcolor="#505050"
     inkscape:zoom="1.8109375"
     inkscape:cx="223.64107"
     inkscape:cy="223.91717"
     inkscape:window-width="2560"
     inkscape:window-height="1368"
     inkscape:window-x="0"
     inkscape:window-y="0"
     inkscape:window-maximized="1"
     inkscape:current-layer="svg1" />
  <!--!Font Awesome Free 7.2.0 by @fontawesome - https://fontawesome.com License - https://fontawesome.com/license/free Copyright 2026 Fonticons, Inc.-->
  <path
     d="M 439.6,204.1 244,8.5 C 238.6,3 231.2,0 223.6,0 216,0 208.6,3 203.2,8.4 L 162.5,49 214,100.5 c 27.1,-9.1 52.7,16.8 43.4,43.7 l 49.7,49.7 c 34.2,-11.8 61.2,31 35.5,56.7 -26.5,26.5 -70.2,-2.9 -56,-37.3 L 240.3,167 v 121.9 c 25.3,12.5 22.3,41.8 9.1,55 -6.4,6.4 -15.2,10.1 -24.3,10.1 -9.1,0 -17.8,-3.6 -24.3,-10.1 -17.6,-17.6 -11.1,-46.9 11.2,-56 v -123 c -20.8,-8.5 -24.6,-30.7 -18.6,-45 L 142.6,69 8.5,203.1 C 3,208.6 0,215.9 0,223.5 c 0,7.6 3,15 8.5,20.4 l 195.6,195.7 c 5.4,5.4 12.7,8.4 20.4,8.4 7.7,0 15,-3 20.4,-8.4 L 439.6,244.9 c 5.4,-5.4 8.4,-12.8 8.4,-20.4 0,-7.6 -3,-15 -8.4,-20.4 z"
     id="path1" />
</svg>
