<?xml version="1.0" encoding="UTF-8" standalone="no"?>
<svg
   viewBox="0 0 509.79999 512"
   version="1.1"
   id="svg1"
   sodipodi:docname="globe-solid-full.svg"
   width="509.79999"
   height="512"
   inkscape:version="1.4.2 (ebf0e940d0, 2025-05-08)"
   xmlns:inkscape="http://www.inkscape.org/namespaces/inkscape"
   xmlns:sodipodi="http://sodipodi.sourceforge.net/DTD/sodipodi-0.dtd"
   xmlns="http://www.w3.org/2000/svg"
   xmlns:svg="http://www.w3.org/2000/svg">
  <defs
     id="defs1" />
  <sodipodi:namedview
     id="namedview1"
     pagecolor="#505050"
     bordercolor="#eeeeee"
     borderopacity="1"
     inkscape:showpageshadow="0"
     inkscape:pageopacity="0"
     inkscape:pagecheckerboard="0"
     inkscape:deskcolor="#505050"
     inkscape:zoom="1.8109375"
     inkscape:cx="254.01208"
     inkscape:cy="255.94478"
     inkscape:window-width="2560"
     inkscape:window-height="1368"
     inkscape:window-x="0"
     inkscape:window-y="0"
     inkscape:window-maximized="1"
     inkscape:current-layer="svg1" />
  <!--!Font Awesome Free 7.2.0 by @fontawesome - https://fontawesome.com License - https://fontawesome.com/license/free Copyright 2026 Fonticons, Inc.-->
  <path
     d="M 350.4,280 H 159.5 c 2.9,64.5 17.2,123.9 37.5,167.4 11.4,24.5 23.7,41.8 35.1,52.4 11.2,10.5 18.9,12.2 22.9,12.2 4,0 11.7,-1.7 22.9,-12.2 11.4,-10.6 23.7,-28 35.1,-52.4 20.3,-43.5 34.6,-102.9 37.5,-167.4 z m -191,-48 H 350.3 C 347.5,167.5 333.2,108.1 312.9,64.6 301.5,40.2 289.2,22.8 277.8,12.2 266.6,1.7 258.9,0 254.9,0 c -4,0 -11.7,1.7 -22.9,12.2 -11.4,10.6 -23.7,28 -35.1,52.4 -20.3,43.5 -34.6,102.9 -37.5,167.4 z m -48,0 C 114.9,146.4 137,66.9 169.3,14.7 77.2,47.3 9.4,131.2 0,232 Z M 0,280 C 9.4,380.8 77.2,464.7 169.3,497.3 137,445.1 114.9,365.6 111.4,280 Z m 398.4,0 C 394.9,365.6 372.8,445.1 340.5,497.3 432.6,464.6 500.4,380.8 509.8,280 Z M 509.8,232 C 500.4,131.2 432.6,47.3 340.5,14.7 372.8,66.9 394.9,146.4 398.4,232 Z"
     id="path1" />
</svg>
