<?xml version="1.0" encoding="UTF-8" standalone="no"?>
<svg
   viewBox="0 0 511.91055 511.95001"
   version="1.1"
   id="svg1"
   sodipodi:docname="house-user-solid-full.svg"
   width="511.91055"
   height="511.95001"
   inkscape:version="1.4.2 (ebf0e940d0, 2025-05-08)"
   xmlns:inkscape="http://www.inkscape.org/namespaces/inkscape"
   xmlns:sodipodi="http://sodipodi.sourceforge.net/DTD/sodipodi-0.dtd"
   xmlns="http://www.w3.org/2000/svg"
   xmlns:svg="http://www.w3.org/2000/svg">
  <defs
     id="defs1" />
  <sodipodi:namedview
     id="namedview1"
     pagecolor="#505050"
     bordercolor="#eeeeee"
     borderopacity="1"
     inkscape:showpageshadow="0"
     inkscape:pageopacity="0"
     inkscape:pagecheckerboard="0"
     inkscape:deskcolor="#505050"
     inkscape:zoom="1.8109375"
     inkscape:cx="255.66868"
     inkscape:cy="255.94478"
     inkscape:window-width="2560"
     inkscape:window-height="1368"
     inkscape:window-x="0"
     inkscape:window-y="0"
     inkscape:window-maximized="1"
     inkscape:current-layer="svg1" />
  <!--!Font Awesome Free 7.2.0 by @fontawesome - https://fontawesome.com License - https://fontawesome.com/license/free Copyright 2026 Fonticons, Inc.-->
  <path
     d="m 277.70527,8.55 c -12.3,-11.4 -31.3,-11.4 -43.5,0 l -224.000001,208 c -9.59999951,9 -12.7999995,22.9 -7.9999995,35.1 4.8,12.2 16.4999995,20.3 29.6999995,20.3 h 16 v 176 c 0,35.3 28.7,64 64.000001,64 h 288 c 35.3,0 64,-28.7 64,-64 v -176 h 16 c 13.2,0 25,-8.1 29.8,-20.3 4.8,-12.2 1.6,-26.2 -8,-35.1 z m -77.8,247.4 c 0,-30.9 25.1,-56 56,-56 30.9,0 56,25.1 56,56 0,30.9 -25.1,56 -56,56 -30.9,0 -56,-25.1 -56,-56 z m -56,176 c 0,-44.2 35.8,-80 80,-80 h 64 c 44.2,0 80,35.8 80,80 0,8.8 -7.2,16 -16,16 h -192 c -8.8,0 -16,-7.2 -16,-16 z"
     id="path1" />
</svg>
