<?xml version="1.0" encoding="UTF-8" standalone="no"?>
<svg
   viewBox="0 0 417.97314 448.07172"
   version="1.1"
   id="svg1"
   sodipodi:docname="mastodon-brands-solid-full.svg"
   width="417.97314"
   height="448.07172"
   inkscape:version="1.4.2 (ebf0e940d0, 2025-05-08)"
   xmlns:inkscape="http://www.inkscape.org/namespaces/inkscape"
   xmlns:sodipodi="http://sodipodi.sourceforge.net/DTD/sodipodi-0.dtd"
   xmlns="http://www.w3.org/2000/svg"
   xmlns:svg="http://www.w3.org/2000/svg">
  <defs
     id="defs1" />
  <sodipodi:namedview
     id="namedview1"
     pagecolor="#505050"
     bordercolor="#eeeeee"
     borderopacity="1"
     inkscape:showpageshadow="0"
     inkscape:pageopacity="0"
     inkscape:pagecheckerboard="0"
     inkscape:deskcolor="#505050"
     inkscape:zoom="1.8109375"
     inkscape:cx="208.73167"
     inkscape:cy="223.91717"
     inkscape:window-width="2560"
     inkscape:window-height="1368"
     inkscape:window-x="0"
     inkscape:window-y="0"
     inkscape:window-maximized="1"
     inkscape:current-layer="svg1" />
  <!--!Font Awesome Free 7.2.0 by @fontawesome - https://fontawesome.com License - https://fontawesome.com/license/free Copyright 2026 Fonticons, Inc.-->
  <path
     d="m 417.97313,147.11265 c 0,-97.200002 -63.7,-125.700002 -63.7,-125.700002 -62.5,-28.7000002 -228.6,-28.4000002 -290.5,0 0,0 -63.69999981,28.5 -63.69999981,125.700002 0,115.7 -6.59999999,259.4 105.59999981,289.1 40.5,10.7 75.3,13 103.3,11.4 50.8,-2.8 79.3,-18.1 79.3,-18.1 l -1.7,-36.9 c 0,0 -36.3,11.4 -77.1,10.1 -40.4,-1.4 -83,-4.4 -89.6,-54 -0.6,-4.6 -0.9,-9.3 -0.9,-13.9 85.6,20.9 158.7,9.1 178.7,6.7 56.1,-6.7 105,-41.3 111.2,-72.9 9.8,-49.8 9,-121.5 9,-121.5 z m -75.1,125.2 h -46.6 v -114.2 c 0,-49.7 -64,-51.6 -64,6.9 v 62.5 h -46.3 v -62.5 c 0,-58.5 -64,-56.6 -64,-6.9 v 114.2 h -46.7 c 0,-122.1 -5.2,-147.9 18.4,-175.000002 25.9,-28.9 79.8,-30.8 103.8,6.100002 l 11.6,19.5 11.6,-19.5 c 24.1,-37.100002 78.1,-34.800002 103.8,-6.100002 23.7,27.300002 18.4,53.000002 18.4,175.000002 z"
     id="path1" />
</svg>
